<svg width="9" height="18" viewBox="0 0 9 18" fill="none" xmlns="http://www.w3.org/2000/svg">
<path fill-rule="evenodd" clip-rule="evenodd" d="M0 2.19232C0 1.23644 0.774892 0.461548 1.73077 0.461548H7.26923C8.22511 0.461548 9 1.23644 9 2.19232C9 3.14819 8.22511 3.92309 7.26923 3.92309H1.73077C0.774892 3.92309 0 3.14819 0 2.19232ZM4.84614 5.79233C4.84614 4.75998 5.68302 3.9231 6.71537 3.9231C7.74772 3.9231 8.5846 4.75998 8.5846 5.79233V15.2077C8.5846 16.2401 7.74772 17.0769 6.71537 17.0769C5.68302 17.0769 4.84614 16.2401 4.84614 15.2077V5.79233ZM2.42308 7.93846C1.39073 7.93846 0.553848 8.77535 0.553848 9.8077V15.2077C0.553848 16.24 1.39073 17.0769 2.42308 17.0769C3.45543 17.0769 4.29231 16.24 4.29231 15.2077V9.8077C4.29231 8.77535 3.45543 7.93846 2.42308 7.93846Z" fill="#0780C5" fill-opacity="0.72"/>
</svg>
